<svg xmlns="http://www.w3.org/2000/svg" xmlns:svg="http://www.w3.org/2000/svg" id="svg8" width="24" height="24" x="0" y="0" enable-background="new 0 0 1000 1000" version="1.1" viewBox="0 0 24 24" xml:space="preserve"><metadata id="metadata2">Svg Vector Icons : http://www.onlinewebfonts.com/icon</metadata><g id="g6" transform="matrix(0.02091837,0,0,0.02091837,1.5408163,1.5408163)"><path id="path4" d="m 876.9,311.5 c -20.8,0 -37.7,16.9 -37.7,37.7 v 490 c 0,41.6 -33.8,75.4 -75.4,75.4 H 236.2 c -41.6,0 -75.4,-33.8 -75.4,-75.4 v -490 c 0,-20.8 -16.9,-37.7 -37.7,-37.7 -20.8,0 -37.7,16.9 -37.7,37.7 v 490 c 0,83.3 67.5,150.8 150.8,150.8 h 527.7 c 83.3,0 150.8,-67.5 150.8,-150.8 v -490 c -0.1,-20.8 -16.9,-37.7 -37.8,-37.7 z M 349.2,763.8 V 349.2 c 0,-20.8 -16.9,-37.7 -37.7,-37.7 -20.8,0 -37.7,16.9 -37.7,37.7 v 414.6 c 0,20.8 16.9,37.7 37.7,37.7 20.8,0 37.7,-16.8 37.7,-37.7 z m 603.1,-603 H 650.8 V 47.7 C 650.8,26.9 634,10 613.1,10 H 386.9 c -20.8,0 -37.7,16.9 -37.7,37.7 V 160.8 H 47.7 c -20.8,0 -37.7,16.9 -37.7,37.7 0,20.8 16.9,37.7 37.7,37.7 h 904.6 c 20.8,0 37.7,-16.8 37.7,-37.7 0,-20.8 -16.8,-37.7 -37.7,-37.7 z m -376.9,0 H 424.6 V 85.4 h 150.8 z m 150.8,603 V 349.2 c 0,-20.8 -16.8,-37.7 -37.7,-37.7 -20.8,0 -37.7,16.9 -37.7,37.7 v 414.6 c 0,20.8 16.8,37.7 37.7,37.7 20.8,0 37.7,-16.8 37.7,-37.7 z m -188.5,0 V 349.2 c 0,-20.8 -16.8,-37.7 -37.7,-37.7 -20.8,0 -37.7,16.9 -37.7,37.7 v 414.6 c 0,20.8 16.9,37.7 37.7,37.7 20.8,0 37.7,-16.8 37.7,-37.7 z"/></g></svg>